<svg fill="#1A1A1A" xmlns="http://www.w3.org/2000/svg" viewBox="0 0 100 100" x="0px" y="0px">
  <title>Plant Default Image</title>
  <path d="M64.57376,12.30509c1.338-.967,2.71319-1.88836,3.99046-2.92983a1.87772,1.87772,0,0,0,.62244-1.427c-0.14994-1.18632.57913-1.47917,1.42728-1.75844,0.92873-.30583,1.87257-0.451,2.58056.39473,0.99253,1.18566.3062,2.37337-.21745,3.466-0.43448.90645-1.24156,0.398-1.97623,0.36893a9.57,9.57,0,0,0-2.5139.594c2.03218,1.68491,1.6005,4.04284-.71949,4.9899a1.98753,1.98753,0,0,0-.74525.90063,10.02608,10.02608,0,0,0-1.14357,2.84965,7.98634,7.98634,0,0,0,.94827-0.55845,24.83882,24.83882,0,0,0,2.066-1.72776c0.43014-.41952.65982-1.0587,1.11522-1.43494a12.1577,12.1577,0,0,1,2.44751-1.59491,1.36648,1.36648,0,0,1,1.04226.71076,4.58438,4.58438,0,0,1-.4218,2.40745,2.19293,2.19293,0,0,1-1.80911.75149,3.0162,3.0162,0,0,0-2.70788,1.13478l0.07828,0.37409c1.96188-.15339,3.93567-0.22077,5.8816-0.48977,1.34873-.18643,2.106.38641,1.69988,1.68964a5.03336,5.03336,0,0,1-1.24118,2.25567,1.8669,1.8669,0,0,1-2.78295-.82905c-0.363-.89313-0.9608-0.945-1.76943-1.10719-3.495-.70093-5.80275,1.19719-8.035,3.40564a50.484,50.484,0,0,0-4.51982,4.37967,18.77578,18.77578,0,0,0-2.69786,5.05174c-0.91,2.46868-1.49821,5.05628-2.218,7.5947-0.3336,1.17646-.65254,2.35708-1.07222,3.87651a15.14785,15.14785,0,0,0,1.28869-1.1572c2.56752-3.01567,5.86889-5.08851,9.20548-7.08977a10.73726,10.73726,0,0,0,4.95163-5.75324,2.56676,2.56676,0,0,0-.2977-1.45044c-0.21214-.58443-0.59351-1.11525-0.749-1.7092a1.13255,1.13255,0,0,1,.317-0.99334,14.072,14.072,0,0,1,2.39082-1.29c1.14852-.48211,2.21694.15783,2.01983,1.37946a11.07868,11.07868,0,0,1-1.39123,3.32115,17.92937,17.92937,0,0,1-1.5994,2.15943l0.3624,0.35245c1.26713-.84682,2.544-1.67981,3.78882-2.55832a1.19808,1.19808,0,0,0,.19464-0.699c0.18969-1.24605,1.10131-1.53386,2.14663-1.58162a1.6285,1.6285,0,0,1,1.68617,1.6072,2.02884,2.02884,0,0,1-1.17467,2.33632,0.725,0.725,0,0,1-.47006.12106c-2.42209-1.04617-3.64037,1.21259-5.47246,1.77238l0.059,0.40057c0.62892,0,1.2579.00591,1.88673-.00159,0.68367-.00816,1.3673-0.02492,2.05077-0.04469,2.167-.06272,3.2047,1.39821,2.4255,3.41823a1.7341,1.7341,0,0,1-2.5991.9853c-0.41179-.20182-0.95881-0.141-1.35206-0.36305a1.5445,1.5445,0,0,1-.65243-0.91693,3.54475,3.54475,0,0,1,.19239-1.21277C69.6349,36.56635,68.28,36.43459,66.922,36.37965a2.243,2.243,0,0,0-1.22535.29642c-3.45641,2.19324-7.10108,4.1331-9.98705,7.11869a27.12419,27.12419,0,0,0-3.56917,4.018,18.4067,18.4067,0,0,0-2.37494,5.29033c-1.09747,4.37764-1.91446,8.82582-2.82934,13.24868a2.58352,2.58352,0,0,0,.16328,1.53244c1.66012-1.55478,3.33308-3.09613,4.97715-4.66768,2.10454-2.01169,4.26153-3.9765,6.25393-6.09506a10.31022,10.31022,0,0,0,2.50517-6.50875c0.05053-.70218-0.89776-1.47284-1.37954-2.21781-0.39217-.60644.37611-2.57242,1.19587-3.01824a1.40581,1.40581,0,0,1,2.142.6424,4.1637,4.1637,0,0,1,.06992,2.21563c-0.33429,1.86148-.78547,3.702-1.2183,5.68039,1.45257-1.02934,2.82195-1.94191,4.107-2.96075a1.50708,1.50708,0,0,0,.21091-1.22507c-0.19779-.9719-0.18575-1.89006.84849-2.26678,0.99266-.36157,2.55687.67713,2.83154,1.70476a2.10558,2.10558,0,0,1-1.36407,2.40333c-2.0668.4695-3.61573,1.77937-5.20133,3.03257l0.1127,0.37811c1.50514-.33306,3.003-0.70625,4.51882-0.98047a3.467,3.467,0,0,1,1.99275.02879,1.73327,1.73327,0,0,1,.57335,1.56889,2.703,2.703,0,0,1-1.25774,1.80045c-0.78952.16992-2.2754,1.1598-2.5082-.85339a1.15242,1.15242,0,0,0-.8755-0.29011,32.72388,32.72388,0,0,0-5.14694.85786,6.80584,6.80584,0,0,0-2.40369,1.86263c-3.48263,3.42338-6.97124,6.84307-10.35346,10.36423a11.06692,11.06692,0,0,0-1.46074,2.871c-1.905,3.88311-1.77077,8.18941-2.54635,12.30671a5.25208,5.25208,0,0,0,.058.95042c1.72125-1.35886,3.27543-2.59163,4.836-3.81623a43.5527,43.5527,0,0,1,4.67935-3.58483c2.15466-1.2583,2.77118-3.34519,3.55807-5.40448,0.16843-.4407.35-0.87683,0.50437-1.32238,0.36355-1.049.76219-2.07008,0.17556-3.21018a3.0212,3.0212,0,0,1-.1463-1.5182,1.66645,1.66645,0,0,1,1.46279-1.67759A1.85788,1.85788,0,0,1,60.912,66.13831a2.64818,2.64818,0,0,1-1.01764,3.25512,1.5139,1.5139,0,0,0-.63281.58992c-0.4483,1.35847-.83549,2.7371-1.33946,4.4313,0.73032-.45074,1.21226-0.73469,1.68038-1.03985,1.03341-.6737,2.09975-1.30668,3.071-2.06134a3.47433,3.47433,0,0,0,.99378-1.41953c0.386-.96086,1.25492-1.6201,2.07246-1.25517,0.85707,0.38258,1.6337.8686,1.32644,2.127-0.5632,2.30674-.50988,2.30721-3.0631,1.85843a1.55052,1.55052,0,0,0-.9747.18216c-1.27163.75-2.5137,1.55-3.76631,2.33223l0.13026,0.30105c1.59474,0.12088,3.18823.28053,4.78522,0.33212a2.00279,2.00279,0,0,0,1.05459-.57027,1.54732,1.54732,0,0,1,2.36341.25618,2.582,2.582,0,0,1,.03084,3.09656,1.41344,1.41344,0,0,1-2.25015-.0336,3.73276,3.73276,0,0,0-3.25136-1.14726,5.39371,5.39371,0,0,1-1.15543-.02161c-4.467-.87935-7.35143,1.98074-10.39151,4.418-2.17287,1.742-4.25114,3.60162-6.41008,5.36157-1.25287,1.02133-1.09192,2.469-1.18075,3.78413-0.13,1.92495-.06869,3.86663-0.01133,5.79887,0.03078,1.0373-.46846,1.13308-1.233.97537,0-2.30346-.09123-4.56142.04287-6.80591a4.9919,4.9919,0,0,0-.59144-2.46816c-0.528-1.2128-.44708-2.689-0.96683-3.90746-1.151-2.69817-2.12169-5.6181-3.90476-7.85994-1.6892-2.12377-4.306-3.518-6.54735-5.1895a1.05737,1.05737,0,0,0-1.76047.45619c-0.73406,1.24326-1.723,1.30082-2.7192.26221a7.509,7.509,0,0,1-1.251-1.68642c-0.45557-.87456-0.66494-1.81119.3949-2.47156,1.2078-.7526,2.83094-0.69391,3.48182.381,1.18931,1.96417,3.50679,1.8475,4.9719,3.22546l0.24747-.2481c-0.51336-.95672-1.01473-1.92011-1.54307-2.86849q-1.02681-1.84313-2.09115-3.66525a1.23662,1.23662,0,0,0-1.56877-.67119c-1.33709.31247-2.37563-.489-2.99708-2.02682-0.59218-1.46542-.3824-2.36466.75492-3.23641,1.26969-.97322,3.223.07528,3.58776,1.958,0.52593,2.71467,2.37857,4.71933,3.57428,7.19665,0.76167-2.10555-.21364-3.57541-1.13873-5.12188-0.98645-1.649-.26424-2.90189,1.66336-3.14219a1.83488,1.83488,0,0,1,2.26671,1.81492,4.47258,4.47258,0,0,1-.42242,2.58355c-1.37327,1.8184-.87279,3.6791-0.41116,5.51415a33.30511,33.30511,0,0,0,4.02334,8.51395c1.15937,1.98567,2.0123,4.1502,3.00362,6.23414,0.08759,0.18416.18835,0.362,0.44669,0.85542,0.32282-2.17052.59661-4.01881,0.873-5.86667a30.15886,30.15886,0,0,1,.5824-3.67406,18.17977,18.17977,0,0,0,.17052-6.71544C43.34573,62.8553,40.735,57.34655,38.11294,51.846a3.82228,3.82228,0,0,0-1.56953-1.42976c-1.10284-.63169-2.28759-1.12034-3.55863-1.7261-0.15267.43716-.26583,0.78848-0.3973,1.1328-0.50378,1.31936-1.687,1.93233-2.84816,1.17449-0.85929-.56082-2.07666-1.707-1.95824-2.38784a7.46423,7.46423,0,0,1,2.06759-3.56536,1.41306,1.41306,0,0,1,2.34374.51664c0.59787,2.39676,2.77216,2.41331,4.58814,3.15479-0.59352-1.27856-1.19241-2.55468-1.77907-3.83638-0.5987-1.308-1.04043-2.633-2.78041-3.03971-1.02534-.23964-1.78619-2.765-1.37265-3.85443a2.16733,2.16733,0,0,1,2.45351-1.4156,1.626,1.626,0,0,1,1.68218,2.0045c-0.08472.80727-.17451,1.614-0.25875,2.42131a1.01412,1.01412,0,0,0-.01967.49672,60.71452,60.71452,0,0,0,3.013,5.30146c0-1.01167-.00225-2.02336.00093-3.035,0.00161-.51571-0.01674-1.03393.02665-1.54654a2.20677,2.20677,0,0,0-.783-2.14206,5.65352,5.65352,0,0,1-1.01277-2.01928,0.72841,0.72841,0,0,1-.01392-0.38277c0.11481-.76937,2.43806-1.82248,3.61328-1.64271A1.50747,1.50747,0,0,1,40.65,38.17065c-0.26073.89878-.85695,1.69572-1.17158,2.5848a8.75214,8.75214,0,0,0-.45868,2.30961,27.31442,27.31442,0,0,0-.04595,3.84871A17.04577,17.04577,0,0,0,39.58917,49.97c0.48708,1.83849.95741,3.68723,1.57124,5.48508,1.25112,3.6645,2.5919,7.29841,3.89976,10.94347a1.23918,1.23918,0,0,0,.53688.67652c0.06719-.52078.09559-1.05009,0.20779-1.561,0.8497-3.87012,1.63019-7.75847,2.60931-11.596a12.85344,12.85344,0,0,0,.06655-6.7292,13.35383,13.35383,0,0,1-.39126-3.76932c0.06716-2.6842-.88719-5.09641-1.81568-7.51258a17.32481,17.32481,0,0,0-2.20225-4.68261c-1.15145-1.43724-2.85235-2.43426-4.51234-3.78459a12.59192,12.59192,0,0,1-.59995,2.04382A2.01365,2.01365,0,0,1,37.953,30.59982a2.82067,2.82067,0,0,1-1.69328-.60308,1.93564,1.93564,0,0,1-.67306-1.20059,8.95224,8.95224,0,0,1-.18108-3.27147,2.695,2.695,0,0,1,1.814-1.47778,1.97521,1.97521,0,0,1,1.69408.98282c0.28762,1.1787,1.17886,1.56706,1.98606,2.127,0.7979,0.5535,1.60727,1.0904,2.70742,1.83474-0.94892-2.14463-1.65741-4.05088-2.63393-5.80821-0.4119-.74129-1.41257-1.14149-2.103-1.7454a1.85435,1.85435,0,0,1-.22083-2.64964c0.81012-1.22693,1.8741-1.618,2.92921-1.04554a1.371,1.371,0,0,0,1.67941-.14425,3.58372,3.58372,0,0,1,2.23709-.62794,2.32534,2.32534,0,0,1,1.67874,1.256,4.04845,4.04845,0,0,1-.65078,2.13026,8.44191,8.44191,0,0,0-.95779,1.90808,26.85831,26.85831,0,0,0,1.87383,13.5065,41.2092,41.2092,0,0,1,2.23115,8.84789,10.04821,10.04821,0,0,0,.51607,1.42535c0.348-.77482.57971-1.178,0.71574-1.61123,1.23509-3.93383,2.57426-7.84142,3.61326-11.827a14.15747,14.15747,0,0,0-.00978-4.6522c-0.121-1.39644-.65213-2.76844-0.68663-4.15906-0.09344-3.76883-2.90738-5.78657-5.0642-8.23432a4.18226,4.18226,0,0,0-1.31529-1.011,1.52317,1.52317,0,0,0-1.192-.01619A2.17165,2.17165,0,0,1,43.67,14.26435c-0.88331-.71341-0.62747-1.49379-0.15852-2.39236,0.43388-.83138.77369-1.74146,1.85427-1.60247a2.02777,2.02777,0,0,1,1.49771.95657c0.60882,2.88528,3.565,3.60871,5.01323,5.99023,0.63635-2.27785-.11576-4.09854-0.6008-5.93558a1.51918,1.51918,0,0,0-.78-0.48413,3.20479,3.20479,0,0,1-1.25429-.5861,5.43021,5.43021,0,0,1-1.00684-2.357c-0.05778-.74985,1.84638-2.21368,2.5418-2.25385A1.97226,1.97226,0,0,1,52.746,7.67724a13.93485,13.93485,0,0,0,.03371,2.82874c0.34191-.85132.68381-1.70265,1.06923-2.66228-1.17131-.17739-0.96713-0.90519-0.58724-1.73614a3.763,3.763,0,0,1,2.51546-2.36678,1.54169,1.54169,0,0,1,1.898,1.18689,3.862,3.862,0,0,1-2.10687,4.146,4.97233,4.97233,0,0,0-1.57646,2.32977c-1.03253,2.46806-.35,4.96637.085,7.44187,0.49481,2.81557,1.01673,5.62641,1.54151,8.43659a9.98337,9.98337,0,0,0,.43488,1.21546c0.77156-1.844,1.41612-3.39471,2.06886-4.94205,0.94152-2.23173,1.85991-4.47389,2.84214-6.68764,0.9541-2.15036.588-4.34744,0.34689-6.54736A2.19176,2.19176,0,0,1,61.149,9.707c0.35754-1.247-.39808-1.783-1.2618-2.48347-1.22773-.99561-0.86651-3.8.438-4.67289a1.86992,1.86992,0,0,1,2.88889,1.356,6.42026,6.42026,0,0,1-.46554,2.96839c-0.92164,1.77825-.07513,3.37578.2171,5.085,0.4718-.99756.98058-1.98025,1.39137-3.00232a1.62129,1.62129,0,0,0-.11939-1.02412c-0.69414-1.90732-.489-3.23953,1.6119-3.94657,1.21678-.40947,2.22516.1331,2.20622,1.41141A4.23855,4.23855,0,0,1,66.198,9.11694c-0.89765.63651-1.34278,1.91119-1.99066,2.8999ZM64.05394,21.6952l-0.37783-.26976a6.7572,6.7572,0,0,1,.30149-1.91409c0.56364-1.1867,1.43606-2.23907,1.90759-3.453a10.80828,10.80828,0,0,0,.273-2.91067c-4.94208,3.36617-6.03908,8.59137-7.80413,13.48459Q61.204,24.1637,64.05394,21.6952Zm-19.88842,4.624c0.10133-2.20694.20266-4.41388,0.31019-6.75568-0.76457.35081-1.22854,0.56367-1.578,0.72405C41.87823,22.572,42.88332,24.44959,44.16552,26.3192ZM30.18911,47.02106c0.06,0.73492.08427,1.24452,0.15106,1.7485a0.85657,0.85657,0,0,0,.23647.58536,0.72512,0.72512,0,0,0,.677-0.05267,1.10493,1.10493,0,0,0,.18775-0.77939,6.55471,6.55471,0,0,0-.34948-1.40679,0.72882,0.72882,0,0,0-.46078-0.44119A1.04413,1.04413,0,0,0,30.18911,47.02106ZM37.68848,25.6544a1.83135,1.83135,0,0,0,.39666,2.99724Zm-10.3831,36.788,0.75508-.38843-0.8738-1.67122A5.63053,5.63053,0,0,0,26.51,60.761C26.74258,61.33462,27.02958,61.88626,27.30538,62.44244ZM39.401,37.48112l-1.56194.83439,0.01808,0.32583,1.31633,0.372Z">
  </path>
</svg>
